<svg xmlns="http://www.w3.org/2000/svg" viewBox="0 0 160 40">
  <defs>
    <linearGradient id="g" x1="0" y1="0" x2="1" y2="1">
      <stop offset="0%" stop-color="#3b82f6"/>
      <stop offset="100%" stop-color="#a855f7"/>
    </linearGradient>
  </defs>
  <rect width="40" height="40" rx="10" fill="url(#g)"/>
  <path d="M20 8l14 8v2l-4 2.5V26l-10 6-10-6v-5.5l-4-2.5v-2l14-8zm0 2.5L10 16l10 5.5L30 16l-10-5.5zM12 22l-2 1.5V26l10 6 10-6v-3.5l-8 5-8-5 2-1.5 6 4 6-4 2 1.5-8 5-10-6z" fill="#fff"/>
  <text x="52" y="28" font-family="system-ui, -apple-system, sans-serif" font-size="22" font-weight="800" fill="#fff">LearnHub</text>
</svg>
